<svg width="14" height="17" viewBox="0 0 14 17" fill="none" xmlns="http://www.w3.org/2000/svg">
<path d="M7.9043 12.2461C7.41602 12.2266 6.97266 12.1113 6.57422 11.9004C6.17578 11.6895 5.83887 11.4102 5.56348 11.0625C5.28809 10.7148 5.09082 10.3242 4.97168 9.89062C4.85254 9.45703 4.82812 9.01172 4.89844 8.55469C4.98047 8.02734 5.13867 7.54004 5.37305 7.09277C5.60742 6.64551 5.87402 6.24512 6.17285 5.8916C6.47168 5.53809 6.76172 5.2373 7.04297 4.98926C7.32422 4.74121 7.55762 4.55176 7.74316 4.4209C7.92871 4.29004 8.02148 4.22461 8.02148 4.22461C8.02148 4.22461 8.09766 4.27734 8.25 4.38281C8.40234 4.48828 8.59863 4.64355 8.83887 4.84863C9.0791 5.05371 9.33496 5.30176 9.60645 5.59277C9.87793 5.88379 10.1338 6.21582 10.374 6.58887C10.6143 6.96191 10.8115 7.36914 10.9658 7.81055C11.1201 8.25195 11.1973 8.72461 11.1973 9.22852C11.1973 9.6543 11.1113 10.0527 10.9395 10.4238C10.7676 10.7949 10.5303 11.1201 10.2275 11.3994C9.9248 11.6787 9.57422 11.8936 9.17578 12.0439C8.77734 12.1943 8.35352 12.2617 7.9043 12.2461ZM7.54688 0.152344C7.37109 0.253906 7.23047 0.394531 7.125 0.574219C6.95703 0.867188 6.77246 1.1875 6.57129 1.53516C6.37012 1.88281 6.17773 2.21484 5.99414 2.53125C5.83398 2.40234 5.6543 2.3418 5.45508 2.34961C5.31445 2.34961 5.18359 2.38086 5.0625 2.44336C4.94141 2.50586 4.83984 2.5918 4.75781 2.70117C3.69531 4.01758 3.04102 5.51367 2.79492 7.18945C2.69336 7.98633 2.75195 8.76953 2.9707 9.53906C3.18945 10.3125 3.55469 11.0098 4.06641 11.6309C4.51562 12.1855 5.05664 12.625 5.68945 12.9492C6.32227 13.2773 6.99414 13.4629 7.70508 13.5059C7.80664 13.5098 7.91211 13.5117 8.02148 13.5117C8.72852 13.5078 9.40625 13.3691 10.0547 13.0957C10.7031 12.8223 11.2754 12.4336 11.7715 11.9297C12.2676 11.4297 12.6484 10.8535 12.9141 10.2012C13.1797 9.54883 13.3105 8.87109 13.3066 8.16797C13.3066 7.32422 13.1875 6.53516 12.9492 5.80078C12.7109 5.06641 12.4043 4.39355 12.0293 3.78223C11.6543 3.1709 11.2588 2.62793 10.8428 2.15332C10.4268 1.67871 10.0352 1.2793 9.66797 0.955078C9.30078 0.630859 9.01172 0.388672 8.80078 0.228516C8.59766 0.0761719 8.36914 0 8.11523 0C7.91211 0 7.72266 0.0507813 7.54688 0.152344ZM8.29102 0.902344C8.48242 1.04688 8.74707 1.26855 9.08496 1.56738C9.42285 1.86621 9.78516 2.2334 10.1719 2.66895C10.5586 3.10449 10.9258 3.60254 11.2734 4.16309C11.6211 4.72363 11.9062 5.33984 12.1289 6.01172C12.3516 6.68359 12.4629 7.40234 12.4629 8.16797C12.4668 8.76172 12.3574 9.33203 12.1348 9.87891C11.9121 10.4297 11.5918 10.916 11.1738 11.3379C10.7598 11.7598 10.2793 12.0859 9.73242 12.3164C9.18555 12.5469 8.61523 12.6641 8.02148 12.668C7.93164 12.668 7.8418 12.666 7.75195 12.6621C7.0918 12.623 6.49121 12.4482 5.9502 12.1377C5.40918 11.8271 4.95117 11.4209 4.57617 10.9189C4.20117 10.417 3.92969 9.85449 3.76172 9.23145C3.59375 8.6084 3.55078 7.96289 3.63281 7.29492C3.86328 5.77148 4.46094 4.41016 5.42578 3.21094C5.42969 3.20703 5.43359 3.20313 5.4375 3.19922C5.44141 3.19531 5.44727 3.19336 5.45508 3.19336C5.48633 3.19336 5.51758 3.25488 5.54883 3.37793C5.58008 3.50098 5.61133 3.63477 5.64258 3.7793C5.67773 3.93164 5.71191 4.07031 5.74512 4.19531C5.77832 4.32031 5.81055 4.38281 5.8418 4.38281C5.8457 4.38281 5.84961 4.38086 5.85352 4.37695C5.85742 4.37695 5.86133 4.375 5.86523 4.37109C5.89648 4.33594 5.96875 4.22461 6.08203 4.03711C6.19531 3.84961 6.33203 3.62012 6.49219 3.34863C6.65234 3.07715 6.81934 2.79102 6.99316 2.49023C7.16699 2.18945 7.33105 1.90625 7.48535 1.64062C7.63965 1.375 7.76367 1.16016 7.85742 0.996094C7.88477 0.949219 7.92188 0.912109 7.96875 0.884766C8.01562 0.857422 8.06445 0.84375 8.11523 0.84375C8.18164 0.84375 8.24023 0.863281 8.29102 0.902344Z" fill="#630ED4"/>
</svg>
