<svg width="22" height="28" viewBox="0 0 22 28" fill="none" xmlns="http://www.w3.org/2000/svg">
<path d="M10.5234 24.4922C9.54687 24.4531 8.66015 24.2227 7.86328 23.8008C7.0664 23.3789 6.39258 22.8203 5.84179 22.125C5.29101 21.4297 4.89648 20.6484 4.6582 19.7812C4.41992 18.9141 4.37109 18.0234 4.51172 17.1094C4.67578 16.0547 4.99219 15.0801 5.46094 14.1855C5.92969 13.291 6.46289 12.4902 7.06054 11.7832C7.6582 11.0762 8.23828 10.4746 8.80078 9.97852C9.36328 9.48242 9.83008 9.10352 10.2012 8.8418C10.5723 8.58008 10.7578 8.44922 10.7578 8.44922C10.7578 8.44922 10.9102 8.55469 11.2148 8.76562C11.5195 8.97656 11.9121 9.28711 12.3926 9.69727C12.873 10.1074 13.3848 10.6035 13.9277 11.1855C14.4707 11.7676 14.9824 12.4316 15.4629 13.1777C15.9434 13.9238 16.3379 14.7383 16.6465 15.6211C16.9551 16.5039 17.1094 17.4492 17.1094 18.457C17.1094 19.3086 16.9375 20.1055 16.5937 20.8477C16.25 21.5898 15.7754 22.2402 15.1699 22.7988C14.5645 23.3574 13.8633 23.7871 13.0664 24.0879C12.2695 24.3887 11.4219 24.5234 10.5234 24.4922ZM9.80859 0.304688C9.45703 0.507812 9.17578 0.789062 8.96484 1.14844C8.6289 1.73438 8.25976 2.375 7.85742 3.07031C7.45508 3.76562 7.07031 4.42969 6.70312 5.0625C6.38281 4.80469 6.02344 4.68359 5.625 4.69922C5.34375 4.69922 5.08203 4.76172 4.83984 4.88672C4.59765 5.01172 4.39453 5.18359 4.23047 5.40234C2.10547 8.03516 0.796873 11.0273 0.304685 14.3789C0.10156 15.9727 0.218748 17.5391 0.656248 19.0781C1.09375 20.625 1.82422 22.0195 2.84765 23.2617C3.74609 24.3711 4.82812 25.25 6.09375 25.8984C7.35937 26.5547 8.70312 26.9258 10.125 27.0117C10.3281 27.0195 10.5391 27.0234 10.7578 27.0234C12.1719 27.0156 13.5273 26.7383 14.8242 26.1914C16.1211 25.6445 17.2656 24.8672 18.2578 23.8594C19.25 22.8594 20.0117 21.707 20.543 20.4023C21.0742 19.0977 21.3359 17.7422 21.3281 16.3359C21.3281 14.6484 21.0898 13.0703 20.6133 11.6016C20.1367 10.1328 19.5234 8.78711 18.7734 7.56445C18.0234 6.3418 17.2324 5.25586 16.4004 4.30664C15.5684 3.35742 14.7852 2.55859 14.0508 1.91016C13.3164 1.26172 12.7383 0.777344 12.3164 0.457031C11.9102 0.152344 11.4531 0 10.9453 0C10.5391 0 10.1602 0.101563 9.80859 0.304688ZM11.2969 1.80469C11.6797 2.09375 12.209 2.53711 12.8848 3.13477C13.5605 3.73242 14.2852 4.4668 15.0586 5.33789C15.832 6.20898 16.5664 7.20508 17.2617 8.32617C17.957 9.44727 18.5273 10.6797 18.9727 12.0234C19.418 13.3672 19.6406 14.8047 19.6406 16.3359C19.6484 17.5234 19.4297 18.6641 18.9844 19.7578C18.5391 20.8594 17.8984 21.832 17.0625 22.6758C16.2344 23.5195 15.2734 24.1719 14.1797 24.6328C13.0859 25.0938 11.9453 25.3281 10.7578 25.3359C10.5781 25.3359 10.3984 25.332 10.2187 25.3242C8.89844 25.2461 7.69726 24.8965 6.61523 24.2754C5.5332 23.6543 4.61719 22.8418 3.86719 21.8379C3.11719 20.834 2.57422 19.709 2.23828 18.4629C1.90234 17.2168 1.8164 15.9258 1.98047 14.5898C2.4414 11.543 3.63672 8.82031 5.5664 6.42188C5.57422 6.41406 5.58203 6.40625 5.58984 6.39844C5.59765 6.39062 5.60937 6.38672 5.625 6.38672C5.6875 6.38672 5.75 6.50977 5.8125 6.75586C5.875 7.00195 5.9375 7.26953 6 7.55859C6.07031 7.86328 6.13867 8.14062 6.20508 8.39062C6.27148 8.64062 6.33594 8.76562 6.39844 8.76562C6.40625 8.76562 6.41406 8.76172 6.42187 8.75391C6.42969 8.75391 6.4375 8.75 6.44531 8.74219C6.50781 8.67188 6.65234 8.44922 6.8789 8.07422C7.10547 7.69922 7.3789 7.24023 7.69922 6.69727C8.01953 6.1543 8.35351 5.58203 8.70117 4.98047C9.04883 4.37891 9.37695 3.8125 9.68554 3.28125C9.99414 2.75 10.2422 2.32031 10.4297 1.99219C10.4844 1.89844 10.5586 1.82422 10.6523 1.76953C10.7461 1.71484 10.8437 1.6875 10.9453 1.6875C11.0781 1.6875 11.1953 1.72656 11.2969 1.80469Z" fill="#1D1A24"/>
</svg>
