<svg width="24" height="19" viewBox="0 0 24 19" fill="none" xmlns="http://www.w3.org/2000/svg">
<path d="M5.37894 0C4.8555 0 4.3594 0.105469 3.89065 0.316406C3.41409 0.535156 3.00394 0.839844 2.66019 1.23047C2.31644 1.62109 2.07034 2.06641 1.9219 2.56641C1.77347 3.05859 1.7344 3.5625 1.80472 4.07812L1.86331 4.94531C1.51956 5 1.23245 5.16211 1.00198 5.43164C0.771514 5.70117 0.65628 6.01562 0.65628 6.375C0.65628 6.76562 0.792998 7.10156 1.06644 7.38281C1.33987 7.66406 1.668 7.80859 2.05081 7.81641L2.13284 9.08203C2.25003 9.93359 2.62894 10.6406 3.26956 11.2031C3.70706 11.5859 4.21097 11.8438 4.78128 11.9766C3.40628 12.2109 2.14847 12.7266 1.00784 13.5234C0.68753 13.7578 0.43753 14.0508 0.257842 14.4023C0.0859671 14.7617 2.95639e-05 15.1406 2.95639e-05 15.5391V18.6445H23.6485V15.5156C23.6563 15.125 23.5742 14.7539 23.4024 14.4023C23.2305 14.0508 22.9883 13.7578 22.6758 13.5234C21.5274 12.7266 20.2696 12.2109 18.9024 11.9766C19.4649 11.8438 19.9649 11.5859 20.4024 11.2031C21.0508 10.6406 21.4297 9.93359 21.5391 9.08203L21.6211 7.81641C22.0039 7.79297 22.3262 7.64258 22.5879 7.36523C22.8496 7.08789 22.9805 6.75781 22.9805 6.375C22.9805 6.01562 22.8672 5.70312 22.6407 5.4375C22.4141 5.17188 22.1328 5.00781 21.7969 4.94531L21.8555 4.07812C21.9258 3.57031 21.8867 3.06641 21.7383 2.56641C21.5899 2.07422 21.3438 1.63281 21 1.24219C20.6563 0.851563 20.25 0.546875 19.7813 0.328125C19.3125 0.117188 18.8203 0.0078125 18.3047 0H16.3594C15.836 0 15.3399 0.105469 14.8711 0.316406C14.3946 0.535156 13.9844 0.839844 13.6407 1.23047C13.2969 1.62109 13.0508 2.06641 12.9024 2.56641C12.7539 3.05859 12.7149 3.5625 12.7852 4.07812L12.8438 4.94531C12.3907 5.02344 12.0469 5.26172 11.8125 5.66016C11.5938 5.26953 11.2617 5.03125 10.8164 4.94531L10.875 4.07812C10.9453 3.57031 10.9063 3.06641 10.7578 2.56641C10.6094 2.07422 10.3633 1.63281 10.0196 1.24219C9.67581 0.851563 9.26956 0.546875 8.80081 0.328125C8.33206 0.117188 7.83987 0.0078125 7.32425 0H5.37894ZM7.9219 11.9766C8.49222 11.8438 8.99612 11.5859 9.43362 11.2031C10.0742 10.6406 10.4492 9.93359 10.5586 9.08203L10.6407 7.81641C11.1641 7.78516 11.5547 7.53906 11.8125 7.07812C12.086 7.55469 12.4922 7.80078 13.0313 7.81641L13.1133 9.08203C13.2305 9.93359 13.6094 10.6406 14.25 11.2031C14.6875 11.5859 15.1914 11.8438 15.7617 11.9766C14.3867 12.2109 13.1289 12.7266 11.9883 13.5234C11.9336 13.5625 11.8828 13.6016 11.836 13.6406C11.7891 13.5938 11.7422 13.5547 11.6953 13.5234C10.5469 12.7266 9.28909 12.2109 7.9219 11.9766Z" fill="#1D1A24"/>
</svg>
