<svg width="20" height="24" viewBox="0 0 20 24" fill="none" xmlns="http://www.w3.org/2000/svg">
<path d="M4.51172 7.81641L2.21484 3.66797C2.21484 3.66797 2.19922 3.67187 2.16797 3.67969H2.15625L2.14453 3.69141H2.13281C1.74219 3.82422 1.4668 4.06641 1.30664 4.41797C1.14648 4.76953 1.11523 5.13281 1.21289 5.50781C1.31055 5.88281 1.55078 6.17578 1.93359 6.38672L3.79687 7.41797L4.51172 7.81641ZM4.51172 7.81641L2.21484 3.66797H2.22656C2.64062 3.55078 3.04297 3.57422 3.43359 3.73828C3.82422 3.90234 4.12109 4.16406 4.32422 4.52344L4.38281 4.61719V4.73438V6.39844C4.38281 6.59375 4.39453 6.79688 4.41797 7.00781L4.51172 7.81641ZM5.64844 1.26562H14.0508H14.4844V1.6875V6.39844C14.4844 7.24219 14.2754 8.01367 13.8574 8.71289C13.4395 9.41211 12.8809 9.9707 12.1816 10.3887C11.4824 10.8066 10.707 11.0156 9.85547 11.0156C9.00391 11.0156 8.22851 10.8066 7.5293 10.3887C6.83008 9.9707 6.27148 9.41211 5.85351 8.71289C5.43555 8.01367 5.22656 7.24219 5.22656 6.39844V1.6875V1.26562H5.64844ZM4.98047 8.87109C5.33203 9.56641 5.81836 10.1641 6.43945 10.6641C7.06055 11.1641 7.76172 11.5078 8.54297 11.6953L8.85937 11.7773V12.1055V13.1016C8.85937 13.8984 8.55469 14.5469 7.94531 15.0469L6.32812 16.3945L6.21094 16.5H6.05859H3.55078C3.31641 16.5 3.11523 16.5664 2.94726 16.6992C2.7793 16.832 2.67578 16.9961 2.63672 17.1914L1.26562 23.1797C1.26562 23.1797 1.26562 23.1836 1.26562 23.1914C1.26562 23.1914 1.26758 23.1914 1.27148 23.1914C1.27539 23.1914 1.27734 23.1914 1.27734 23.1914C1.28516 23.207 1.30078 23.2148 1.32422 23.2148H18.1172C18.1328 23.2148 18.1484 23.207 18.1641 23.1914C18.1641 23.1836 18.1641 23.1797 18.1641 23.1797L16.8047 17.1914C16.7578 16.9961 16.6504 16.832 16.4824 16.6992C16.3145 16.5664 16.1133 16.5 15.8789 16.5H13.6406H13.4883L13.3711 16.3945L11.7539 15.0469C11.1445 14.5312 10.8398 13.8828 10.8398 13.1016V12.1172V11.7773L11.1562 11.6953C11.9453 11.5078 12.6504 11.1641 13.2715 10.6641C13.8926 10.1641 14.3828 9.5625 14.7422 8.85938L14.7891 8.74219L14.9062 8.68359L18.0703 6.9375C18.4687 6.71875 18.7578 6.42578 18.9375 6.05859C19.1172 5.69141 19.1914 5.30664 19.1602 4.9043C19.1289 4.50195 18.9941 4.13672 18.7559 3.80859C18.5176 3.48047 18.1836 3.24609 17.7539 3.10547C17.7383 3.09766 17.7031 3.08594 17.6484 3.07031H17.6367C17.043 2.90625 16.4727 2.95312 15.9258 3.21094L15.3281 3.50391V2.83594V0.597656C15.3281 0.480469 15.2656 0.421875 15.1406 0.421875H4.55859C4.44141 0.421875 4.38281 0.480469 4.38281 0.597656V2.83594V3.50391L3.78516 3.22266C3.23047 2.95703 2.65625 2.90625 2.0625 3.07031H2.05078C1.99609 3.08594 1.96094 3.09766 1.94531 3.10547C1.51562 3.24609 1.18164 3.48047 0.943358 3.80859C0.705077 4.13672 0.572265 4.50195 0.544921 4.9043C0.517577 5.30664 0.593749 5.69141 0.773437 6.05859C0.953124 6.42578 1.23828 6.71875 1.62891 6.9375L4.80469 8.68359L4.92187 8.75391L4.98047 8.87109ZM15.3867 4.5C15.5977 4.14844 15.8965 3.89258 16.2832 3.73242C16.6699 3.57227 17.0664 3.55078 17.4727 3.66797L17.3672 4.07812L17.4727 3.66797H17.4844L17.5078 3.67969H17.5312H17.543L17.5547 3.69141H17.5664C17.957 3.82422 18.2324 4.06641 18.3926 4.41797C18.5527 4.76953 18.584 5.13281 18.4863 5.50781C18.3887 5.88281 18.1484 6.17578 17.7656 6.38672L15.9141 7.41797L15.1992 7.81641L15.293 6.99609C15.3164 6.80078 15.3281 6.60156 15.3281 6.39844V4.72266V4.60547L15.3867 4.5ZM12.1523 18.1289C12.4258 18.1289 12.6504 18.2246 12.8262 18.416C13.002 18.6074 13.0898 18.832 13.0898 19.0898V20.6133C13.0898 20.8789 13 21.1055 12.8203 21.293C12.6406 21.4805 12.418 21.5742 12.1523 21.5742H7.27734C7.00391 21.5742 6.7793 21.4785 6.60351 21.2871C6.42773 21.0957 6.33984 20.8711 6.33984 20.6133V19.0898C6.33984 18.8242 6.43164 18.5977 6.61523 18.4102C6.79883 18.2227 7.01953 18.1289 7.27734 18.1289H12.1523ZM4.59375 9.05859C5.41406 10.668 6.69531 11.6836 8.4375 12.1055V13.1016C8.4375 13.7578 8.1875 14.2969 7.6875 14.7188L6.05859 16.0781H3.55078C2.93359 16.0781 2.52344 16.3086 2.32031 16.7695H2.29687L2.23828 17.0273L2.22656 17.0977V17.1094L0.867187 23.0742L0.855468 23.0977C0.855468 23.1211 0.851562 23.1445 0.843749 23.168V23.2383L0.867187 23.2969C0.882812 23.3594 0.910155 23.4141 0.949218 23.4609C1.04297 23.5781 1.16797 23.6367 1.32422 23.6367H18.1172C18.2656 23.6367 18.3867 23.5781 18.4805 23.4609C18.5039 23.4375 18.5234 23.4062 18.5391 23.3672L18.5859 23.2852V23.1914C18.5859 23.1836 18.5859 23.1758 18.5859 23.168V23.1328L18.5742 23.1094C18.582 23.125 18.5859 23.1367 18.5859 23.1445C18.5859 23.1367 18.582 23.125 18.5742 23.1094V23.0977L18.5625 23.0625C18.5703 23.0703 18.5742 23.0781 18.5742 23.0859L18.5508 22.9805V22.9688L17.2148 17.0977C17.0586 16.418 16.6133 16.0781 15.8789 16.0781H13.6406L12.0234 14.7188C11.5156 14.2969 11.2617 13.7578 11.2617 13.1016V12.1172C13.0117 11.6875 14.2969 10.6641 15.1172 9.04688L18.1758 7.35938L18.2695 7.30078C19.2227 6.77734 19.6562 5.96875 19.5703 4.875C19.5 3.92188 19.0703 3.25 18.2812 2.85938L18.3047 2.8125L17.8711 2.69531C17.8398 2.6875 17.8008 2.67578 17.7539 2.66016H17.7422C17.0547 2.47266 16.3906 2.53125 15.75 2.83594V0.597656C15.75 0.199219 15.5469 0 15.1406 0H4.55859C4.16016 0 3.96094 0.199219 3.96094 0.597656V2.83594C3.44531 2.58594 2.91016 2.5 2.35547 2.57812V2.56641L2.10937 2.625C2.05469 2.63281 2.00391 2.64453 1.95703 2.66016C1.89453 2.67578 1.84766 2.6875 1.81641 2.69531C0.777343 3.04688 0.214843 3.77344 0.128905 4.875C0.0429678 5.95312 0.468749 6.75781 1.40625 7.28906L4.59375 9.05859ZM2.96484 17.625H2.97656L3.04687 17.2734C3.09375 17.0391 3.26172 16.9219 3.55078 16.9219H6.36328L6.59766 16.7227L8.21484 15.375C8.92578 14.7891 9.28125 14.0312 9.28125 13.1016V11.4492L8.90625 11.3555C9.21094 11.4102 9.52734 11.4375 9.85547 11.4375C10.1836 11.4375 10.5 11.4102 10.8047 11.3555L10.418 11.4492V13.1016C10.418 14.0156 10.7695 14.7695 11.4727 15.3633L13.1016 16.7227L13.3359 16.9219H15.8789C16.1602 16.9219 16.3281 17.043 16.3828 17.2852L17.6367 22.793H1.79297L2.96484 17.625ZM5.64844 1.6875H14.0508V6.39844C14.0508 7.55469 13.6445 8.54297 12.832 9.36328C12.0039 10.1836 11.0117 10.5938 9.85547 10.5938C8.69141 10.5938 7.69922 10.1836 6.87891 9.36328C6.05859 8.54297 5.64844 7.55469 5.64844 6.39844V1.6875ZM12.1523 17.707H7.27734C6.37109 17.707 5.91797 18.168 5.91797 19.0898V20.6133C5.91797 21.543 6.37109 22.0078 7.27734 22.0078H12.1523C12.5352 22.0078 12.8594 21.8672 13.125 21.5859C13.3828 21.3203 13.5117 20.9961 13.5117 20.6133V19.0898C13.5117 18.168 13.0586 17.707 12.1523 17.707ZM12.1523 18.5508C12.4961 18.5508 12.668 18.7305 12.668 19.0898V20.6133C12.668 20.7695 12.6172 20.8984 12.5156 21C12.4141 21.1016 12.293 21.1523 12.1523 21.1523H7.27734C6.93359 21.1523 6.76172 20.9727 6.76172 20.6133V19.0898C6.76172 18.7305 6.93359 18.5508 7.27734 18.5508H12.1523ZM15.75 4.72266C16.1172 4.09766 16.6523 3.87891 17.3555 4.06641L17.4492 4.10156L17.3672 4.07812L17.4492 4.10156C17.8555 4.24219 18.0781 4.53906 18.1172 4.99219C18.1562 5.44531 17.9805 5.78516 17.5898 6.01172L17.5664 6.02344C17.5742 6.01562 17.582 6.01172 17.5898 6.01172C17.5508 6.02734 17.5195 6.04297 17.4961 6.05859L17.543 6.03516L17.4961 6.05859L17.3437 6.14062L15.7148 7.04297C15.7383 6.83203 15.75 6.61719 15.75 6.39844V4.72266ZM3.43359 6.73828L2.15625 6.03516L2.13281 6.02344C1.72656 5.79688 1.54297 5.45312 1.58203 4.99219C1.61328 4.63281 1.76172 4.37109 2.02734 4.20703L3.43359 6.73828ZM3.96094 5.95312L2.88281 4.00781C3.33594 4.03125 3.69531 4.27344 3.96094 4.73438V5.95312ZM14.4844 8.42578C14.6641 8.03516 14.7852 7.62109 14.8477 7.18359L14.7187 8.30859H14.707L14.4844 8.42578ZM4.51172 4.03125L4.80469 4.17188V4.51172L4.6875 4.3125C4.63281 4.21094 4.57422 4.11719 4.51172 4.03125ZM15.0234 4.28906L14.9062 4.48828V4.16016L15.1875 4.03125C15.1328 4.10938 15.0781 4.19531 15.0234 4.28906ZM12.1055 10.9219C12.582 10.6797 13.0195 10.3594 13.418 9.96094C13.6367 9.74219 13.832 9.51562 14.0039 9.28125C13.5117 10.0078 12.8789 10.5547 12.1055 10.9219ZM7.59375 10.9219C6.82812 10.5547 6.19922 10.0117 5.70703 9.29297C5.87891 9.51953 6.07031 9.74219 6.28125 9.96094C6.6875 10.3594 7.125 10.6797 7.59375 10.9219ZM5.00391 7.83984L4.92187 7.6875L4.86328 7.19531C4.89453 7.41406 4.94141 7.62891 5.00391 7.83984ZM18.5742 23.1094V23.0977V23.0859C18.5742 23.0938 18.5742 23.1016 18.5742 23.1094Z" fill="#1D1A24"/>
</svg>
