<svg width="24" height="22" viewBox="0 0 24 22" fill="none" xmlns="http://www.w3.org/2000/svg">
<path d="M1.26565 16.0547H5.07425V17.3203C5.07425 17.6641 5.1973 17.9609 5.44339 18.2109C5.68948 18.4609 5.98831 18.5859 6.33987 18.5859H10.9805V20.6953C10.9805 21.0469 11.1035 21.3457 11.3496 21.5918C11.5957 21.8379 11.8946 21.9609 12.2461 21.9609H22.3828C22.6563 21.9609 22.9024 21.8809 23.1211 21.7207C23.3399 21.5605 23.4922 21.3594 23.5782 21.1172H12.2461C12.1289 21.1172 12.0293 21.0762 11.9473 20.9941C11.8653 20.9121 11.8242 20.8125 11.8242 20.6953C11.8242 20.5781 11.8653 20.4785 11.9473 20.3965C12.0293 20.3145 12.1289 20.2734 12.2461 20.2734H23.6485V7.60547C23.6485 7.13672 23.4844 6.73828 23.1563 6.41016C22.8282 6.08203 22.4297 5.91797 21.961 5.91797H17.7422V4.21875C17.7422 3.75781 17.5762 3.36133 17.2442 3.0293C16.9121 2.69727 16.5157 2.53125 16.0547 2.53125H12.668V1.6875C12.668 1.22656 12.5039 0.830078 12.1758 0.498047C11.8477 0.166016 11.4492 0 10.9805 0H1.68753C1.22659 0 0.830108 0.166016 0.498076 0.498047C0.166045 0.830078 2.95639e-05 1.22656 2.95639e-05 1.6875V14.7773C2.95639e-05 15.1289 0.12503 15.4297 0.37503 15.6797C0.62503 15.9297 0.921905 16.0547 1.26565 16.0547ZM12.5977 15.1992H1.26565C1.14847 15.1992 1.04886 15.1582 0.966826 15.0762C0.884795 14.9941 0.84378 14.8945 0.84378 14.7773C0.84378 14.6602 0.884795 14.5605 0.966826 14.4785C1.04886 14.3965 1.14847 14.3555 1.26565 14.3555H12.668V3.375H16.0547C16.2813 3.375 16.4785 3.45898 16.6465 3.62695C16.8145 3.79492 16.8985 3.99219 16.8985 4.21875V16.0547H11.4024C11.6758 16.0547 11.9219 15.9746 12.1407 15.8145C12.3594 15.6543 12.5117 15.4492 12.5977 15.1992ZM5.918 16.0547V16.125C6.05081 16.0781 6.19144 16.0547 6.33987 16.0547H5.918ZM11.8242 13.5117H2.53128V0.84375H10.9805C11.2149 0.84375 11.4141 0.925781 11.5782 1.08984C11.7422 1.25391 11.8242 1.45312 11.8242 1.6875V13.5117ZM11.8242 18.5859H16.4766C16.75 18.5859 16.9942 18.5059 17.209 18.3457C17.4239 18.1855 17.5782 17.9844 17.6719 17.7422H6.33987C6.22269 17.7422 6.12308 17.7012 6.04105 17.6191C5.95901 17.5371 5.918 17.4375 5.918 17.3203C5.918 17.2031 5.95901 17.1035 6.04105 17.0215C6.12308 16.9395 6.22269 16.8984 6.33987 16.8984H17.7422V6.76172H21.961C22.1953 6.76172 22.3946 6.84375 22.5586 7.00781C22.7227 7.17188 22.8047 7.37109 22.8047 7.60547V19.4297H12.2461C12.1055 19.4297 11.9649 19.4531 11.8242 19.5V18.5859Z" fill="#1D1A24"/>
</svg>
