<svg width="223" height="72" viewBox="0 0 223 72" fill="none" xmlns="http://www.w3.org/2000/svg">
<rect x="8" width="40" height="40" rx="12" fill="#0EA5E9"/>
<path d="M23.5 30V20.85C22.65 20.6167 21.9375 20.15 21.3625 19.45C20.7875 18.75 20.5 17.9333 20.5 17V10H22.5V17H23.5V10H25.5V17H26.5V10H28.5V17C28.5 17.9333 28.2125 18.75 27.6375 19.45C27.0625 20.15 26.35 20.6167 25.5 20.85V30H23.5ZM33.5 30V22H30.5V15C30.5 13.6167 30.9875 12.4375 31.9625 11.4625C32.9375 10.4875 34.1167 10 35.5 10V30H33.5Z" fill="white"/>
<path d="M61.755 29V11.5391H64.8844V26.3647H72.5991V29H61.755ZM79.0734 29.1641C78.1766 29.1641 77.3906 28.9719 76.7156 28.5875C76.0406 28.2031 75.5169 27.6423 75.1444 26.9052C74.7719 26.168 74.5856 25.2753 74.5856 24.2272V15.8984H77.6315V23.7603C77.6315 24.6388 77.8606 25.3273 78.3187 25.8259C78.7769 26.3245 79.4053 26.5738 80.204 26.5738C80.7447 26.5738 81.2244 26.456 81.6431 26.2206C82.0619 25.9851 82.3919 25.6424 82.6331 25.1924C82.8744 24.7424 82.995 24.2025 82.995 23.5728V15.8984H86.0484V29H83.153L83.1192 25.7609H83.3499C82.983 26.9031 82.4406 27.7559 81.7226 28.3191C81.0046 28.8824 80.1216 29.1641 79.0734 29.1641ZM91.7268 21.3256V29H88.6809V15.8984H91.5689L91.6101 19.1375H91.372C91.7339 18.0053 92.2713 17.1551 92.9843 16.5868C93.6972 16.0185 94.5878 15.7344 95.6559 15.7344C96.5556 15.7344 97.341 15.9266 98.0121 16.3109C98.6832 16.6953 99.205 17.2548 99.5775 17.9895C99.95 18.7242 100.136 19.6181 100.136 20.6713V29H97.0903V21.1381C97.0903 20.2597 96.8625 19.5712 96.4069 19.0726C95.9512 18.574 95.3241 18.3247 94.5253 18.3247C93.9875 18.3247 93.5073 18.4424 93.0846 18.6779C92.6619 18.9133 92.33 19.2541 92.0887 19.7002C91.8475 20.1463 91.7268 20.6881 91.7268 21.3256ZM108.447 29.2644C107.175 29.2644 106.071 28.9824 105.134 28.4185C104.197 27.8546 103.472 27.0655 102.96 26.0513C102.447 25.0371 102.191 23.8581 102.191 22.5144C102.191 21.1556 102.447 19.9679 102.96 18.9512C103.472 17.9345 104.197 17.1441 105.134 16.5802C106.071 16.0163 107.175 15.7344 108.447 15.7344C109.178 15.7344 109.856 15.8291 110.48 16.0184C111.105 16.2078 111.663 16.4793 112.156 16.8329C112.649 17.1865 113.061 17.6174 113.391 18.1257C113.721 18.634 113.958 19.207 114.101 19.8448L111.247 20.4444C111.167 20.1056 111.046 19.7991 110.883 19.5249C110.72 19.2507 110.522 19.015 110.288 18.8178C110.054 18.6206 109.785 18.4696 109.481 18.3647C109.176 18.2599 108.84 18.2075 108.472 18.2075C107.763 18.2075 107.174 18.3959 106.704 18.7728C106.234 19.1497 105.882 19.6614 105.646 20.308C105.411 20.9545 105.293 21.6872 105.293 22.5059C105.293 23.3119 105.411 24.0383 105.646 24.6852C105.882 25.332 106.234 25.8448 106.704 26.2234C107.174 26.602 107.763 26.7913 108.472 26.7913C108.845 26.7913 109.186 26.7369 109.496 26.6281C109.805 26.5194 110.08 26.3632 110.32 26.1596C110.56 25.956 110.762 25.71 110.925 25.4216C111.088 25.1331 111.208 24.8131 111.285 24.4616L114.131 25.0569C113.993 25.7131 113.758 26.2993 113.425 26.8154C113.092 27.3315 112.679 27.7727 112.185 28.1391C111.69 28.5056 111.128 28.7847 110.497 28.9766C109.866 29.1684 109.183 29.2644 108.447 29.2644ZM119.191 21.3256V29H116.145V11.5391H119.149V19.1375H118.836C119.198 18.0053 119.735 17.1551 120.448 16.5868C121.161 16.0185 122.052 15.7344 123.12 15.7344C124.02 15.7344 124.806 15.9266 125.48 16.3109C126.153 16.6953 126.677 17.2548 127.049 17.9895C127.422 18.7242 127.608 19.6181 127.608 20.6713V29H124.554V21.1381C124.554 20.2597 124.327 19.5712 123.871 19.0726C123.415 18.574 122.788 18.3247 121.989 18.3247C121.452 18.3247 120.971 18.4424 120.549 18.6779C120.126 18.9133 119.794 19.2541 119.553 19.7002C119.312 20.1463 119.191 20.6881 119.191 21.3256ZM130.38 29V11.5391H135.097L138.414 20.5551C138.527 20.8888 138.656 21.3187 138.8 21.8446C138.945 22.3705 139.093 22.9381 139.246 23.5473C139.399 24.1565 139.543 24.7518 139.679 25.3332C139.815 25.9146 139.929 26.4291 140.022 26.8766H139.391C139.489 26.4441 139.605 25.9396 139.739 25.3632C139.874 24.7868 140.017 24.1928 140.17 23.5811C140.323 22.9694 140.472 22.3968 140.618 21.8633C140.763 21.3299 140.892 20.8938 141.005 20.5551L144.277 11.5391H149.005V29H145.882V20.1875C145.882 19.814 145.886 19.361 145.896 18.8283C145.905 18.2957 145.918 17.7248 145.934 17.1157C145.95 16.5067 145.965 15.8912 145.98 15.2694C145.994 14.6475 146.004 14.0581 146.009 13.5012H146.226C146.07 14.1134 145.902 14.7424 145.719 15.3882C145.537 16.034 145.356 16.6602 145.176 17.2669C144.996 17.8736 144.825 18.4291 144.663 18.9333C144.501 19.4375 144.363 19.8556 144.248 20.1875L141.021 29H138.366L135.088 20.1875C134.973 19.8606 134.836 19.4488 134.678 18.9521C134.52 18.4554 134.349 17.9061 134.167 17.3044C133.984 16.7027 133.799 16.0765 133.613 15.4257C133.427 14.7749 133.245 14.1334 133.066 13.5012H133.324C133.334 14.0231 133.346 14.59 133.361 15.2019C133.375 15.8137 133.389 16.4279 133.402 17.0445C133.416 17.6611 133.429 18.2419 133.441 18.7871C133.453 19.3322 133.459 19.799 133.459 20.1875V29H130.38ZM155.441 29.2709C154.61 29.2709 153.862 29.121 153.198 28.8212C152.533 28.5213 152.009 28.0777 151.624 27.4902C151.24 26.9027 151.048 26.1778 151.048 25.3156C151.048 24.5769 151.186 23.9661 151.463 23.4833C151.741 23.0005 152.117 22.6145 152.592 22.3252C153.067 22.036 153.601 21.8173 154.196 21.669C154.791 21.5207 155.405 21.4131 156.04 21.3463C156.804 21.2616 157.423 21.1877 157.897 21.1245C158.371 21.0614 158.72 20.9599 158.944 20.8201C159.169 20.6802 159.281 20.4628 159.281 20.1678V20.1059C159.281 19.6744 159.194 19.3092 159.02 19.0105C158.847 18.7117 158.591 18.4826 158.252 18.323C157.913 18.1635 157.494 18.0837 156.994 18.0837C156.487 18.0837 156.048 18.1617 155.676 18.3176C155.303 18.4736 155 18.6762 154.765 18.9256C154.529 19.175 154.357 19.445 154.247 19.7356L151.423 19.1562C151.683 18.3819 152.082 17.7426 152.622 17.2386C153.161 16.7345 153.805 16.3578 154.553 16.1084C155.301 15.8591 156.11 15.7344 156.982 15.7344C157.597 15.7344 158.219 15.8075 158.847 15.9537C159.476 16.1 160.053 16.3434 160.578 16.6841C161.104 17.0247 161.526 17.4848 161.846 18.0643C162.167 18.6438 162.327 19.3694 162.327 20.2409V29H159.413V27.1934H159.289C159.099 27.5656 158.832 27.9096 158.488 28.2254C158.144 28.5412 157.721 28.7944 157.217 28.985C156.713 29.1756 156.121 29.2709 155.441 29.2709ZM156.222 27.0069C156.851 27.0069 157.395 26.8827 157.854 26.6342C158.313 26.3858 158.668 26.0554 158.92 25.6431C159.172 25.2307 159.298 24.7828 159.298 24.2994V22.7487C159.198 22.8306 159.03 22.9062 158.794 22.9756C158.559 23.045 158.293 23.1067 157.998 23.1608C157.703 23.2148 157.414 23.2612 157.131 23.3C156.848 23.3387 156.608 23.3712 156.41 23.3975C155.953 23.4572 155.542 23.559 155.176 23.7029C154.811 23.8468 154.523 24.0455 154.314 24.2991C154.105 24.5527 154 24.8803 154 25.2819C154 25.6591 154.096 25.9754 154.288 26.2309C154.48 26.4863 154.743 26.6795 155.076 26.8105C155.409 26.9414 155.791 27.0069 156.222 27.0069ZM171.017 15.8984V18.2853H163.577V15.8984H171.017ZM165.436 12.7812H168.482V25.3105C168.482 25.7839 168.584 26.1315 168.787 26.3532C168.99 26.5749 169.325 26.6858 169.793 26.6858C169.929 26.6858 170.111 26.6695 170.341 26.6368C170.57 26.6042 170.755 26.5722 170.896 26.541L171.376 28.8917C171.042 28.9952 170.701 29.0685 170.352 29.1118C170.003 29.1551 169.665 29.1767 169.338 29.1767C168.084 29.1767 167.12 28.8645 166.447 28.2402C165.773 27.6158 165.436 26.7263 165.436 25.5716V12.7812ZM178.279 29.2644C177.007 29.2644 175.903 28.9824 174.966 28.4185C174.029 27.8546 173.304 27.0655 172.792 26.0513C172.279 25.0371 172.023 23.8581 172.023 22.5144C172.023 21.1556 172.279 19.9679 172.792 18.9512C173.304 17.9345 174.029 17.1441 174.966 16.5802C175.903 16.0163 177.007 15.7344 178.279 15.7344C179.01 15.7344 179.688 15.8291 180.312 16.0184C180.937 16.2078 181.495 16.4793 181.988 16.8329C182.481 17.1865 182.893 17.6174 183.223 18.1257C183.553 18.634 183.79 19.207 183.933 19.8448L181.079 20.4444C180.999 20.1056 180.878 19.7991 180.715 19.5249C180.552 19.2507 180.354 19.015 180.12 18.8178C179.886 18.6206 179.617 18.4696 179.313 18.3647C179.008 18.2599 178.672 18.2075 178.304 18.2075C177.595 18.2075 177.006 18.3959 176.536 18.7728C176.066 19.1497 175.714 19.6614 175.478 20.308C175.243 20.9545 175.125 21.6872 175.125 22.5059C175.125 23.3119 175.243 24.0383 175.478 24.6852C175.714 25.332 176.066 25.8448 176.536 26.2234C177.006 26.602 177.595 26.7913 178.304 26.7913C178.677 26.7913 179.018 26.7369 179.328 26.6281C179.637 26.5194 179.912 26.3632 180.152 26.1596C180.392 25.956 180.594 25.71 180.757 25.4216C180.92 25.1331 181.04 24.8131 181.117 24.4616L183.963 25.0569C183.825 25.7131 183.59 26.2993 183.257 26.8154C182.924 27.3315 182.511 27.7727 182.017 28.1391C181.522 28.5056 180.96 28.7847 180.329 28.9766C179.699 29.1684 179.015 29.2644 178.279 29.2644ZM189.023 21.3256V29H185.977V11.5391H188.981V19.1375H188.668C189.03 18.0053 189.567 17.1551 190.28 16.5868C190.993 16.0185 191.884 15.7344 192.952 15.7344C193.852 15.7344 194.638 15.9266 195.312 16.3109C195.986 16.6953 196.509 17.2548 196.881 17.9895C197.254 18.7242 197.44 19.6181 197.44 20.6713V29H194.386V21.1381C194.386 20.2597 194.159 19.5712 193.703 19.0726C193.247 18.574 192.62 18.3247 191.821 18.3247C191.284 18.3247 190.803 18.4424 190.381 18.6779C189.958 18.9133 189.626 19.2541 189.385 19.7002C189.144 20.1463 189.023 20.6881 189.023 21.3256Z" fill="#006591"/>
</svg>
